<svg width="24" height="24" viewBox="0 0 24 24" fill="none" xmlns="http://www.w3.org/2000/svg">
<path d="M11.9999 24C18.6273 24 24 18.6274 24 12C24 5.37257 18.6273 0 11.9999 0C5.37246 0 0 5.37257 0 12C0 18.6274 5.37246 24 11.9999 24Z" fill="white"/>
<path d="M11.9071 17.24C11.2991 17.24 10.7337 17.144 10.2111 16.952C9.69906 16.76 9.26706 16.536 8.91506 16.28C8.56306 16.0133 8.30173 15.768 8.13106 15.544L9.50706 14.056C9.6884 14.3013 9.97106 14.5467 10.3551 14.792C10.7497 15.0267 11.1977 15.144 11.6991 15.144C12.2644 15.144 12.7071 14.9787 13.0271 14.648C13.3471 14.3173 13.5071 13.8907 13.5071 13.368C13.5071 12.8453 13.3524 12.4187 13.0431 12.088C12.7337 11.7573 12.3017 11.592 11.7471 11.592C11.3844 11.592 11.0644 11.6773 10.7871 11.848C10.5097 12.008 10.3017 12.1893 10.1631 12.392L8.59506 12.12L9.04306 5.8H15.2191V7.864H11.0111L10.8511 10.12C10.9897 10.0133 11.2031 9.912 11.4911 9.816C11.7897 9.70933 12.1151 9.656 12.4671 9.656C13.1177 9.656 13.6991 9.816 14.2111 10.136C14.7231 10.456 15.1231 10.8987 15.4111 11.464C15.7097 12.0187 15.8591 12.6533 15.8591 13.368C15.8591 14.0933 15.6937 14.7547 15.3631 15.352C15.0431 15.9387 14.5844 16.4027 13.9871 16.744C13.3897 17.0747 12.6964 17.24 11.9071 17.24Z" fill="#013951"/>
</svg>
