<svg width="24" height="24" viewBox="0 0 24 24" fill="none" xmlns="http://www.w3.org/2000/svg">
<path d="M11.9999 24C18.6273 24 24 18.6274 24 12C24 5.37257 18.6273 0 11.9999 0C5.37246 0 0 5.37257 0 12C0 18.6274 5.37246 24 11.9999 24Z" fill="white"/>
<path d="M12.0024 17.24C11.1811 17.24 10.4344 17.0053 9.76244 16.536C9.09044 16.056 8.5571 15.3787 8.16244 14.504C7.77844 13.6187 7.58644 12.584 7.58644 11.4C7.58644 10.216 7.77844 9.18133 8.16244 8.296C8.5571 7.41067 9.09044 6.73333 9.76244 6.264C10.4344 5.79467 11.1811 5.56 12.0024 5.56C12.8238 5.56 13.5704 5.79467 14.2424 6.264C14.9144 6.73333 15.4424 7.41067 15.8264 8.296C16.2211 9.18133 16.4184 10.216 16.4184 11.4C16.4184 12.584 16.2211 13.6187 15.8264 14.504C15.4424 15.3787 14.9144 16.056 14.2424 16.536C13.5704 17.0053 12.8238 17.24 12.0024 17.24ZM12.0024 15.112C12.3971 15.112 12.7544 14.9787 13.0744 14.712C13.3944 14.4347 13.6451 14.0187 13.8264 13.464C14.0184 12.8987 14.1144 12.2107 14.1144 11.4C14.1144 10.5787 14.0184 9.89067 13.8264 9.336C13.6451 8.78133 13.3944 8.36533 13.0744 8.088C12.7544 7.81067 12.3971 7.672 12.0024 7.672C11.6078 7.672 11.2504 7.81067 10.9304 8.088C10.6104 8.36533 10.3544 8.78133 10.1624 9.336C9.9811 9.89067 9.89044 10.5787 9.89044 11.4C9.89044 12.2107 9.9811 12.8987 10.1624 13.464C10.3544 14.0187 10.6104 14.4347 10.9304 14.712C11.2504 14.9787 11.6078 15.112 12.0024 15.112Z" fill="#013951"/>
</svg>
