<svg width="24" height="24" viewBox="0 0 24 24" fill="none" xmlns="http://www.w3.org/2000/svg">
<path d="M11.9999 24C18.6273 24 24 18.6274 24 12C24 5.37257 18.6273 0 11.9999 0C5.37246 0 0 5.37257 0 12C0 18.6274 5.37246 24 11.9999 24Z" fill="white"/>
<path d="M11.75 17.24C10.918 17.24 10.1607 17.064 9.478 16.712C8.806 16.3493 8.29933 15.9333 7.958 15.464L9.35 14.056C9.574 14.3547 9.878 14.6107 10.262 14.824C10.646 15.0373 11.0673 15.144 11.526 15.144C12.0593 15.144 12.4753 15.0053 12.774 14.728C13.0833 14.4507 13.238 14.0933 13.238 13.656C13.238 13.2187 13.0833 12.8613 12.774 12.584C12.4753 12.296 12.038 12.152 11.462 12.152H10.502V10.232H11.462C11.942 10.232 12.31 10.1147 12.566 9.88C12.8327 9.64533 12.966 9.32533 12.966 8.92C12.966 8.52533 12.838 8.21067 12.582 7.976C12.326 7.74133 11.974 7.624 11.526 7.624C11.1527 7.624 10.7953 7.72 10.454 7.912C10.1233 8.09333 9.862 8.312 9.67 8.568L8.294 7.16C8.62467 6.744 9.09933 6.376 9.718 6.056C10.3367 5.72533 11.0193 5.56 11.766 5.56C12.4807 5.56 13.1047 5.704 13.638 5.992C14.182 6.26933 14.598 6.64267 14.886 7.112C15.174 7.58133 15.318 8.088 15.318 8.632C15.318 9.21867 15.142 9.736 14.79 10.184C14.4487 10.6213 14.0593 10.92 13.622 11.08C14.1553 11.24 14.6193 11.5653 15.014 12.056C15.4087 12.536 15.606 13.1333 15.606 13.848C15.606 14.4773 15.4513 15.0533 15.142 15.576C14.8327 16.088 14.3847 16.4933 13.798 16.792C13.222 17.0907 12.5393 17.24 11.75 17.24Z" fill="#013951"/>
</svg>
