<svg width="24" height="24" viewBox="0 0 24 24" fill="none" xmlns="http://www.w3.org/2000/svg">
<path d="M11.9999 24C18.6273 24 24 18.6274 24 12C24 5.37257 18.6273 0 11.9999 0C5.37246 0 0 5.37257 0 12C0 18.6274 5.37246 24 11.9999 24Z" fill="white"/>
<path d="M8.20656 17C8.20656 16.0293 8.36123 15.2027 8.67056 14.52C8.9799 13.8267 9.3479 13.272 9.77456 12.856C10.2012 12.4293 10.7506 11.9653 11.4226 11.464C11.8386 11.1547 12.1586 10.8987 12.3826 10.696C12.6172 10.4933 12.8092 10.2693 12.9586 10.024C13.1079 9.768 13.1826 9.49067 13.1826 9.192C13.1826 8.744 13.0546 8.392 12.7986 8.136C12.5532 7.86933 12.2119 7.736 11.7746 7.736C11.3266 7.736 10.9639 7.87467 10.6866 8.152C10.4092 8.42933 10.2012 8.73333 10.0626 9.064L8.22256 8.2C8.36123 7.79467 8.58523 7.38933 8.89456 6.984C9.2039 6.57867 9.61456 6.24267 10.1266 5.976C10.6386 5.69867 11.2306 5.56 11.9026 5.56C12.6066 5.56 13.2359 5.71467 13.7906 6.024C14.3452 6.32267 14.7719 6.73867 15.0706 7.272C15.3799 7.79467 15.5346 8.37067 15.5346 9C15.5346 9.576 15.4172 10.088 15.1826 10.536C14.9586 10.9733 14.6812 11.352 14.3506 11.672C14.0199 11.992 13.5826 12.3547 13.0386 12.76C12.5052 13.1547 12.0786 13.5067 11.7586 13.816C11.4492 14.1147 11.2092 14.4507 11.0386 14.824H15.5186V17H8.20656Z" fill="#013951"/>
</svg>
