<svg width="24" height="24" viewBox="0 0 24 24" fill="none" xmlns="http://www.w3.org/2000/svg">
<g clip-path="url(#clip0_2393_49219)">
<mask id="mask0_2393_49219" style="mask-type:luminance" maskUnits="userSpaceOnUse" x="0" y="0" width="24" height="24">
<path d="M24 0.751953H0V23.943H24V0.751953Z" fill="white"/>
</mask>
<g mask="url(#mask0_2393_49219)">
<path d="M18.7085 8.47119H20.2591C20.6636 8.47119 20.967 8.80824 20.967 9.17903V10.4263H24.0006V9.17903C24.0006 7.12284 22.3153 5.4375 20.2591 5.4375H17.6973C18.1355 6.38132 18.4725 7.39254 18.7085 8.47119Z" fill="white"/>
<path d="M20.968 15.6172V20.2016C20.968 20.6061 20.6308 20.9094 20.26 20.9094H16.451L14.2264 23.4712L12.0353 20.9094H4.28254C3.87805 20.9094 3.5746 20.5724 3.5746 20.2016V10.9319L3.17012 10.4599H3.5746V9.21277C3.5746 8.80827 3.87805 8.50493 4.28254 8.50493H9.00152C8.9004 7.9656 8.76555 7.42627 8.5633 6.92066C8.32735 6.31391 8.05772 5.84199 7.75435 5.4375H4.28254C2.22636 5.4375 0.541016 7.12284 0.541016 9.17903V20.1678C0.541016 22.224 2.22636 23.9095 4.28254 23.9095H20.26C22.3162 23.9095 24.0016 22.224 24.0016 20.1678V12.0442L20.968 15.5836V15.6172Z" fill="white"/>
<path d="M16.9887 12.6183C16.9887 10.0565 16.5169 7.89925 15.6068 6.11273C14.427 3.75318 12.6067 2.10148 10.3146 1.25879C3.91011 -0.763689 0.0337079 3.82051 0 3.92163C2.46068 1.93287 6.43825 2.06769 7.41578 2.5396C9.03376 3.28117 9.97762 4.49475 10.6181 6.11273C11.4608 8.27003 11.5955 10.8992 11.5618 12.6183H7.88774L14.2248 20.1015L20.6292 12.6183H16.9887Z" fill="white"/>
<path d="M3.5389 9.88672H2.89844V11.471H3.5389V9.88672Z" fill="white"/>
</g>
</g>
<defs>
<clipPath id="clip0_2393_49219">
<rect width="24" height="24" fill="white"/>
</clipPath>
</defs>
</svg>
