<svg width="24" height="24" viewBox="0 0 24 24" fill="none" xmlns="http://www.w3.org/2000/svg">
<path d="M15.7938 7.88519L16.7882 15.8057L11.8849 21.0175L6.98178 15.8057L7.97616 7.88519C4.30733 6.95941 2.25 4.35352 2.25 4.35352V11.3825C2.25 13.4055 2.86722 15.4286 3.99873 17.2116C5.54169 19.6117 8.11326 22.629 11.8849 24.0005C15.6566 22.629 18.2283 19.6117 19.7713 17.2116C20.9371 15.4286 21.5199 13.4055 21.5199 11.3825V4.45638C21.5199 4.45638 19.2226 6.95937 15.7252 7.85087L15.7938 7.88519Z" fill="white"/>
<path d="M15.7942 5.93188C15.7942 4.80037 14.8684 3.87457 13.7369 3.87457H13.0169L12.6055 1.57733C12.9826 1.44018 13.257 1.1658 13.257 0.857203C13.257 0.377169 12.6397 0 11.8854 0C11.131 0 10.5138 0.377169 10.5138 0.857203C10.5138 1.1658 10.7882 1.44018 11.1653 1.57733L10.7539 3.87457H10.0339C8.90236 3.87457 7.97656 4.80037 7.97656 5.93188H10.5138L9.45093 14.9153L11.8511 17.4184L14.2512 14.9153L13.1883 5.93188H15.7599H15.7942Z" fill="white"/>
</svg>
