<svg width="24" height="24" viewBox="0 0 24 24" fill="none" xmlns="http://www.w3.org/2000/svg">
<path d="M12 24C18.6274 24 24 18.6274 24 12C24 5.37258 18.6274 0 12 0C5.37258 0 0 5.37258 0 12C0 18.6274 5.37258 24 12 24Z" fill="#E87600"/>
<path d="M16.5401 6.5332L15.5801 8.0101C16.4662 9.33933 17.3155 10.6686 18.2017 11.9978C17.3155 13.327 16.4662 14.6563 15.5801 15.9855L16.5401 17.4624L20.1217 11.9978L16.5401 6.5332Z" fill="white"/>
<path d="M5.79496 11.9978C6.68111 10.6686 7.53043 9.33933 8.41658 8.0101L7.45654 6.5332L3.875 11.9978L7.45654 17.4624L8.41658 15.9855C7.53043 14.6563 6.68111 13.327 5.79496 11.9978Z" fill="white"/>
<path d="M11.9978 5.34961L7.71484 11.9958L11.9978 18.6419L16.2809 11.9958L11.9978 5.34961ZM11.9978 15.6512L9.6348 11.9958L11.9978 8.34037V15.6142V15.6512Z" fill="white"/>
</svg>
