<svg width="24" height="24" viewBox="0 0 24 24" fill="none" xmlns="http://www.w3.org/2000/svg">
<path d="M12 24C18.6274 24 24 18.6274 24 12C24 5.37258 18.6274 0 12 0C5.37258 0 0 5.37258 0 12C0 18.6274 5.37258 24 12 24Z" fill="#DF1620"/>
<path d="M11.8158 9.71289C13.145 9.71289 14.2528 10.7836 14.2528 12.1498C14.2528 13.5159 13.182 14.5867 11.8158 14.5867C10.4497 14.5867 9.37891 13.5159 9.37891 12.1498C9.37891 10.7836 10.4497 9.71289 11.8158 9.71289Z" fill="white"/>
<path d="M11.6666 2.99393C11.5927 4.80316 11.482 6.6124 11.4081 8.42163C9.52505 8.64317 8.08508 10.2308 8.08508 12.1508C8.08508 12.5201 8.12197 12.8524 8.23274 13.1847L6.49738 14.1816C6.31277 13.7016 5.83276 12.2247 6.34969 10.4893C7.0143 8.31085 8.71276 7.31394 9.08199 7.0924L11.6666 2.95703V2.99393Z" fill="white"/>
<path d="M3.95117 16.8742C5.57579 16.0619 7.16347 15.2127 8.78809 14.4004C9.89578 15.9142 12.0004 16.3942 13.6989 15.4342C13.9942 15.2496 14.2896 15.0281 14.5112 14.8065L16.2466 15.8035C15.8773 16.2096 14.8065 17.3543 12.9973 17.7604C10.6342 18.2773 8.78809 17.1696 8.41886 16.9481L3.95117 16.8742Z" fill="white"/>
<path d="M19.8275 16.5779C18.3137 15.581 16.7998 14.6209 15.2491 13.624C16.0244 11.8886 15.3598 9.82091 13.6983 8.86091C13.4029 8.6763 13.0706 8.56556 12.7383 8.49172V6.46094C13.2552 6.53478 14.7321 6.8671 15.9875 8.19633C17.5383 9.85786 17.5383 11.8517 17.5383 12.2578C18.3137 13.6978 19.0521 15.1379 19.8275 16.5779Z" fill="white"/>
</svg>
