<svg width="24" height="24" viewBox="0 0 24 24" fill="none" xmlns="http://www.w3.org/2000/svg">
<path d="M12 24C18.6274 24 24 18.6274 24 12C24 5.37258 18.6274 0 12 0C5.37258 0 0 5.37258 0 12C0 18.6274 5.37258 24 12 24Z" fill="#6A4094"/>
<path d="M18.9776 15.6203L15.9129 17.6511C16.1714 17.1711 16.6884 16.1003 16.6514 14.6234C16.6145 13.1095 15.9868 12.0388 15.6914 11.5957C16.0606 11.7065 16.5038 11.928 16.9469 12.2234C18.4977 13.3311 18.8668 15.0665 18.9776 15.6203Z" fill="white"/>
<path d="M15.1019 14.5885C15.0281 17.0624 12.5173 19.3516 12.1112 19.7208C10.8927 19.1301 9.6741 18.5393 8.49256 17.9854C8.78795 17.9854 9.37881 17.9855 9.96958 17.6162C10.228 17.4686 10.4495 17.2839 10.5972 17.1362C10.228 17.2101 9.85875 17.2101 9.4526 17.2101C7.49568 17.2101 5.94493 16.3978 5.0957 15.807V12.4101C5.39109 12.6316 8.27105 15.0316 10.5972 15.0316C10.9295 15.0316 11.631 15.0316 12.3694 14.6624C14.8064 13.4439 13.0343 11.2285 13.0343 11.2285C13.4035 11.3762 14.3635 11.8562 14.8434 12.927C15.1758 13.6285 15.1387 14.2193 15.1387 14.5885H15.1019Z" fill="white"/>
<path d="M5.05859 8.38625L8.12327 6.35547C7.90173 6.76162 6.8678 8.60775 7.56934 10.7124C7.8278 11.4877 8.23402 12.0416 8.56633 12.4478C8.01248 12.2631 7.08934 11.8939 6.42473 11.1924C5.87088 10.5647 5.35401 9.67856 5.09555 8.38625H5.05859Z" fill="white"/>
<path d="M8.93465 9.38231C9.11927 6.79769 11.3346 4.73 11.9254 4.25C12.9962 4.76692 14.1039 5.28384 15.1747 5.80076L15.544 5.98539C14.7317 6.28077 13.9193 6.53922 13.1439 6.8346C13.9193 6.72383 15.2855 6.57617 16.9102 7.09309C17.7963 7.38848 18.4609 7.79463 18.9409 8.12693V11.5239C18.5347 11.1546 18.1286 10.7854 17.7593 10.4161C16.6147 9.60384 14.9902 8.90234 13.4763 8.90234C12.8487 8.90234 12.2577 9.01308 11.7039 9.27154C9.26696 10.49 11.0393 12.7054 11.0393 12.7054C11.0393 12.7054 9.96848 12.7054 9.37771 11.4869C8.93464 10.6746 8.89773 9.89925 8.93465 9.3454V9.38231Z" fill="white"/>
</svg>
