<svg width="24" height="24" viewBox="0 0 24 24" fill="none" xmlns="http://www.w3.org/2000/svg">
<path d="M12 24C18.6274 24 24 18.6274 24 12C24 5.37258 18.6274 0 12 0C5.37258 0 0 5.37258 0 12C0 18.6274 5.37258 24 12 24Z" fill="#D2B400"/>
<path d="M13.4407 8.19319C13.4407 8.19319 14.1792 9.00548 14.1423 9.96548C14.1054 11.0363 13.2563 12.2178 11.9639 12.2547C10.6716 12.2178 9.8223 11.0363 9.78538 9.96548C9.78538 9.00548 10.3392 8.34088 10.4869 8.19319C8.1977 7.67627 5.90856 7.12239 3.65625 6.60547C4.28394 7.82393 4.91171 9.04239 5.57632 10.2978L6.27787 11.5531C6.27787 11.5531 6.53631 11.8855 6.72093 11.9224L10.3393 13.2885L8.75165 15.947C9.82242 17.0178 10.8932 18.0886 11.9639 19.1593C13.0347 18.0886 14.1055 17.0178 15.1762 15.947L13.5886 13.2885L17.207 11.9224C17.3916 11.8486 17.5762 11.7008 17.65 11.5531L18.3516 10.2978C18.9793 9.07931 19.607 7.86085 20.2716 6.60547C17.9824 7.12239 15.693 7.67627 13.4407 8.19319ZM11.9639 17.0916L10.7085 15.8732L11.8531 13.9162L11.9639 13.7686L12.0746 13.9162L13.2192 15.8732L11.9639 17.0916Z" fill="white"/>
</svg>
