<svg width="24" height="24" viewBox="0 0 24 24" fill="none" xmlns="http://www.w3.org/2000/svg">
<path d="M12 24C18.6274 24 24 18.6274 24 12C24 5.37258 18.6274 0 12 0C5.37258 0 0 5.37258 0 12C0 18.6274 5.37258 24 12 24Z" fill="#488C38"/>
<path d="M18.6466 13.0337C18.6466 12.6275 18.5727 12.2214 18.4989 11.8521C18.4989 11.6675 18.4251 11.5198 18.3881 11.3352C17.0589 6.09213 12.0005 4.61523 12.0005 4.61523C11.2251 4.91062 10.2651 5.35369 9.34199 6.05523C6.7943 7.97523 5.87121 10.6337 5.57582 11.7414C5.50198 12.1475 5.42814 12.5537 5.35429 13.0337C5.02199 16.3198 7.90199 19.0522 11.2989 19.3845L10.7451 15.0645C10.7082 14.7322 10.5236 14.4368 10.2282 14.2891C9.08355 13.6614 8.34505 12.4429 8.34505 11.0768C8.34505 10.6706 8.41891 9.96907 8.93584 9.04599C10.0066 7.12599 12.0374 5.98137 12.0374 5.98137C12.9235 6.49829 14.1051 7.38448 14.9543 8.78756C15.3235 9.41525 15.7297 10.0799 15.7297 11.0399C15.7297 11.3722 15.7297 12.5168 14.9912 13.2552C14.6589 13.5875 14.4743 13.8829 13.8466 14.2522C13.5512 14.3999 13.3666 14.6952 13.3297 15.0275L12.7389 19.3476C16.0989 19.0153 18.942 16.2829 18.6835 12.9968L18.6466 13.0337ZM15.6559 11.5568C15.6559 11.5568 15.6559 11.5568 15.6559 11.5198V11.5568Z" fill="white"/>
<path d="M14.2159 11.0787C14.2159 9.86023 13.219 8.86328 12.0006 8.86328C10.7821 8.86328 9.78516 9.86023 9.78516 11.0787C9.78516 12.2971 10.7821 13.294 12.0006 13.294C13.219 13.294 14.2159 12.2971 14.2159 11.0787Z" fill="white"/>
</svg>
