<svg width="24" height="24" viewBox="0 0 24 24" fill="none" xmlns="http://www.w3.org/2000/svg">
<path d="M12 24C18.6274 24 24 18.6274 24 12C24 5.37258 18.6274 0 12 0C5.37258 0 0 5.37258 0 12C0 18.6274 5.37258 24 12 24Z" fill="#0F6FA6"/>
<path d="M19.8281 12.0004L17.8711 10.4497C17.8711 10.4497 17.7234 10.2281 17.6865 10.1174C17.0958 8.16045 15.5819 6.60964 13.625 5.98195C13.4034 5.90811 13.1819 5.76045 12.9973 5.61276L11.705 3.95117L10.4865 5.53889C10.3019 5.72351 10.0435 5.8712 9.78504 5.94505C7.71735 6.53582 6.09272 8.16041 5.50195 10.1912C6.12965 9.04657 7.34812 8.30812 8.7512 8.30812C10.8927 8.30812 12.628 10.1174 12.4804 12.2958C12.3696 14.1789 10.8188 15.6927 8.93577 15.8035C7.45885 15.8774 6.16657 15.102 5.50195 13.9204C6.12965 15.9512 7.71731 17.5389 9.74808 18.1666C10.0065 18.2404 10.2281 18.3881 10.4127 18.5727L11.668 20.2343L13.0342 18.462C13.0342 18.462 13.4034 18.1666 13.625 18.0927C15.508 17.4281 17.0219 15.9143 17.6127 13.9943C17.6496 13.8835 17.7234 13.7727 17.7973 13.662L19.7912 12.1112L19.8281 12.0004Z" fill="white"/>
</svg>
